<?xml version="1.0" encoding="UTF-8" standalone="no"?>
<svg
   xmlns:dc="http://purl.org/dc/elements/1.1/"
   xmlns:cc="http://creativecommons.org/ns#"
   xmlns:rdf="http://www.w3.org/1999/02/22-rdf-syntax-ns#"
   xmlns:svg="http://www.w3.org/2000/svg"
   xmlns="http://www.w3.org/2000/svg"
   xmlns:sodipodi="http://sodipodi.sourceforge.net/DTD/sodipodi-0.dtd"
   xmlns:inkscape="http://www.inkscape.org/namespaces/inkscape"
   version="1.1"
   x="0px"
   y="0px"
   width="12.000021"
   height="13.574016"
   viewBox="0 0 12.000021 13.574015"
   enable-background="new 0 0 599.998 583.111"
   xml:space="preserve"
   id="svg3039"
   inkscape:version="0.48.4 r9939"
   sodipodi:docname="ia-icon.svg"><metadata
     id="metadata3096"><rdf:RDF><cc:Work
         rdf:about=""><dc:format>image/svg+xml</dc:format><dc:type
           rdf:resource="http://purl.org/dc/dcmitype/StillImage" /><dc:title></dc:title></cc:Work></rdf:RDF></metadata><defs
     id="defs3094" /><sodipodi:namedview
     pagecolor="#ffffff"
     bordercolor="#666666"
     borderopacity="1"
     objecttolerance="10"
     gridtolerance="10"
     guidetolerance="10"
     inkscape:pageopacity="0"
     inkscape:pageshadow="2"
     inkscape:window-width="1920"
     inkscape:window-height="1125"
     id="namedview3092"
     showgrid="false"
     fit-margin-top="0"
     fit-margin-left="0"
     fit-margin-right="0"
     fit-margin-bottom="0"
     inkscape:zoom="7.9867624"
     inkscape:cx="34.68682"
     inkscape:cy="12.715741"
     inkscape:window-x="0"
     inkscape:window-y="0"
     inkscape:window-maximized="1"
     inkscape:current-layer="A" /><g
     id="A"
     transform="translate(-140.28052,-561.46621)"><rect
       x="140.28052"
       y="574.42487"
       width="12.000021"
       height="0.61536318"
       id="rect3058"
       style="fill:#ffffff" /><rect
       x="140.75385"
       y="573.24133"
       width="11.076934"
       height="0.8520959"
       id="rect3060"
       style="fill:#ffffff" /><rect
       x="140.68288"
       y="563.53723"
       width="11.017765"
       height="1.1834365"
       id="rect3062"
       style="fill:#ffffff" /><polygon
       points="347.701,162.012 539.506,162.012 551.193,149.072 347.701,101.486 144.21,149.072 155.897,162.012 "
       id="polygon3064"
       transform="matrix(0.02835123,0,0,0.02835123,136.33399,558.58896)"
       style="fill:#ffffff" /><path
       d="m 142.27205,568.4671 c -0.009,-0.58121 -0.0245,-1.16243 -0.0474,-1.74323 -0.0213,-0.54724 -0.0567,-1.09393 -0.0833,-1.64099 -9.2e-4,-0.0473 -0.0222,-0.0574 -0.0615,-0.066 -0.1614,-0.0351 -0.32366,-0.0517 -0.4866,-0.052 -0.16294,2.8e-4 -0.32517,0.0169 -0.48659,0.052 -0.0392,0.009 -0.0592,0.0187 -0.0615,0.066 -0.0266,0.54706 -0.0618,1.09375 -0.0832,1.64099 -0.0228,0.5808 -0.0379,1.16202 -0.0474,1.74323 -0.006,0.4119 -0.002,0.82408 0.005,1.23609 0.007,0.45704 0.0174,0.91421 0.0358,1.37092 0.0199,0.49014 0.0506,0.97987 0.0775,1.4697 0.005,0.0939 0.0148,0.18749 0.0221,0.27872 0.18084,0.047 0.36017,0.0742 0.53937,0.0766 0.17922,-9.3e-4 0.35851,-0.0294 0.53938,-0.0766 0.007,-0.0912 0.017,-0.18488 0.0222,-0.27872 0.027,-0.48983 0.0576,-0.97956 0.0775,-1.4697 0.0185,-0.45671 0.0287,-0.91388 0.0358,-1.37092 0.006,-0.41201 0.0113,-0.82419 0.005,-1.23609 z"
       id="path3084"
       inkscape:connector-curvature="0"
       style="fill:#ffffff" /><path
       d="m 145.27192,568.4671 c -0.009,-0.58121 -0.0245,-1.16243 -0.0474,-1.74323 -0.0214,-0.54724 -0.0567,-1.09393 -0.0833,-1.64099 -9.2e-4,-0.0473 -0.0223,-0.0574 -0.0615,-0.066 -0.16139,-0.0351 -0.32366,-0.0517 -0.48656,-0.052 -0.16295,2.8e-4 -0.3252,0.0169 -0.4866,0.052 -0.0392,0.009 -0.0592,0.0187 -0.0615,0.066 -0.0265,0.54706 -0.0618,1.09375 -0.0832,1.64099 -0.0228,0.5808 -0.0379,1.16202 -0.0474,1.74323 -0.006,0.4119 -0.002,0.82408 0.005,1.23609 0.007,0.45704 0.0174,0.91421 0.0358,1.37092 0.0199,0.49014 0.0506,0.97987 0.0775,1.4697 0.005,0.0939 0.0148,0.18749 0.0221,0.27872 0.18089,0.047 0.3602,0.0742 0.53938,0.0766 0.17921,-9.3e-4 0.35849,-0.0294 0.53939,-0.0766 0.007,-0.0912 0.017,-0.18488 0.0222,-0.27872 0.0268,-0.48983 0.0576,-0.97956 0.0775,-1.4697 0.0185,-0.45671 0.0286,-0.91388 0.0358,-1.37092 0.006,-0.41201 0.0113,-0.82419 0.005,-1.23609 z"
       id="path3086"
       inkscape:connector-curvature="0"
       style="fill:#ffffff" /><path
       d="m 148.75103,568.4671 c -0.009,-0.58121 -0.0245,-1.16243 -0.0473,-1.74323 -0.0214,-0.54724 -0.0566,-1.09393 -0.0832,-1.64099 -9.4e-4,-0.0473 -0.0223,-0.0574 -0.0616,-0.066 -0.16137,-0.0351 -0.32363,-0.0517 -0.48656,-0.052 -0.16293,2.8e-4 -0.32518,0.0169 -0.48661,0.052 -0.0392,0.009 -0.0592,0.0187 -0.0615,0.066 -0.0265,0.54706 -0.0618,1.09375 -0.0833,1.64099 -0.0228,0.5808 -0.0379,1.16202 -0.0474,1.74323 -0.006,0.4119 -0.002,0.82408 0.005,1.23609 0.007,0.45704 0.0174,0.91421 0.0358,1.37092 0.0199,0.49014 0.0505,0.97987 0.0775,1.4697 0.005,0.0939 0.0148,0.18749 0.0222,0.27872 0.18088,0.047 0.36017,0.0742 0.53938,0.0766 0.17919,-9.3e-4 0.3585,-0.0294 0.53938,-0.0766 0.007,-0.0912 0.017,-0.18488 0.0221,-0.27872 0.027,-0.48983 0.0576,-0.97956 0.0775,-1.4697 0.0185,-0.45671 0.0287,-0.91388 0.0358,-1.37092 0.006,-0.41201 0.0113,-0.82419 0.005,-1.23609 z"
       id="path3088"
       inkscape:connector-curvature="0"
       style="fill:#ffffff" /><path
       d="m 151.67987,568.4671 c -0.009,-0.58121 -0.0246,-1.16243 -0.0474,-1.74323 -0.0214,-0.54724 -0.0567,-1.09393 -0.0833,-1.64099 -9.2e-4,-0.0473 -0.0222,-0.0574 -0.0615,-0.066 -0.16135,-0.0351 -0.32364,-0.0517 -0.48657,-0.052 -0.1629,2.8e-4 -0.32518,0.0169 -0.48655,0.052 -0.0392,0.009 -0.0592,0.0187 -0.0615,0.066 -0.0266,0.54706 -0.0618,1.09375 -0.0833,1.64099 -0.0228,0.5808 -0.0379,1.16202 -0.0474,1.74323 -0.006,0.4119 -0.002,0.82408 0.005,1.23609 0.007,0.45704 0.0174,0.91421 0.0358,1.37092 0.0199,0.49014 0.0506,0.97987 0.0775,1.4697 0.005,0.0939 0.0148,0.18749 0.0221,0.27872 0.1809,0.047 0.3602,0.0742 0.53938,0.0766 0.17921,-9.3e-4 0.35852,-0.0294 0.53938,-0.0766 0.007,-0.0912 0.017,-0.18488 0.0221,-0.27872 0.027,-0.48983 0.0576,-0.97956 0.0775,-1.4697 0.0185,-0.45671 0.0286,-0.91388 0.0358,-1.37092 0.006,-0.41201 0.0113,-0.82419 0.005,-1.23609 z"
       id="path3090"
       inkscape:connector-curvature="0"
       style="fill:#ffffff" /></g></svg>